<?xml version="1.0" encoding="utf-8"?><svg viewBox="0 0 100 100" xmlns="http://www.w3.org/2000/svg" width="100px" height="100px" xmlns:xlink="http://www.w3.org/1999/xlink" style="width:100%;height:100%;background-size:initial;background-repeat:initial;background-position-y:initial;background-position-x:initial;background-origin:initial;background-color:initial;background-clip:initial;background-attachment:initial;animation-play-state:paused" ><g class="ldl-scale" style="transform-origin:50% 50%;transform:rotate(0deg) scale(1, 1);animation-play-state:paused" ><linearGradient y2="79.344" x2="50" y1="22.624" x1="50" gradientUnits="userSpaceOnUse" id="a" style="animation-play-state:paused" ><stop stop-color="#f5e6c8" offset="0" style="stop-color:rgb(245, 230, 200);animation-play-state:paused" ></stop>
<stop stop-color="#f8c788" offset=".509" style="stop-color:rgb(248, 199, 136);animation-play-state:paused" ></stop>
<stop stop-color="#f5e6c8" offset="1" style="stop-color:rgb(245, 230, 200);animation-play-state:paused" ></stop></linearGradient>
<circle stroke-miterlimit="10" stroke-width="3" stroke="#f8b26a" fill="url(#a)" r="40" cy="50" cx="50" style="stroke:rgb(248, 178, 106);animation-play-state:paused" ></circle>
<ellipse ry="10.583" rx="5.44" cy="39.083" cx="34.921" style="animation-play-state:paused" ></ellipse>
<path stroke-miterlimit="10" stroke-linejoin="round" stroke-linecap="round" stroke-width="4" stroke="#000" fill="none" d="M44.246 58.744c1.481-.948 3.561-1.539 5.866-1.539 4.495 0 8.138 1.482 8.138 5.015 0 2.336-3.27 3.979-6.479 4.535l.001-.011c2.973.472 6.479 1.881 6.479 4.535 0 3.136-3.644 5.015-8.138 5.015-2.304 0-4.385-.59-5.866-1.539" style="animation-play-state:paused" ></path>
<g style="animation-play-state:paused" ><path stroke-miterlimit="10" stroke-linejoin="round" stroke-linecap="round" stroke-width="4" stroke="#000" fill="none" d="M63.973 28.535s-6.457 7.463-8.283 11.056c2.156 2.324 7.731 7.604 9.717 10.076" style="animation-play-state:paused" ></path>
<path stroke-miterlimit="10" stroke-linejoin="round" stroke-linecap="round" stroke-width="4" stroke="#000" fill="none" d="M56.712 39.396c2.794-.379 10.742-.253 13.535-.633" style="animation-play-state:paused" ></path></g>
<path fill="#c33636" d="M73.2 51.355c4.205 0 6.461 2.657 6.891 4.276.38-1.679 3.219-4.276 6.891-4.276A7.018 7.018 0 0 1 94 58.373v.003c0 .193-.012.386-.029.58-.003.033-.005.067-.009.1a6.829 6.829 0 0 1-.081.548l-.025.129c-.037.18-.079.359-.128.539-.011.041-.025.082-.037.123a9.443 9.443 0 0 1-.149.46l-.048.138a11.063 11.063 0 0 1-.505 1.146 12.594 12.594 0 0 1-.543.968l-.12.194c-.128.203-.262.406-.402.608l-.038.056c-.083.119-.168.239-.255.358h-.004c-.304.416-.627.829-.969 1.236h.003l-.075.086c-.195.231-.393.46-.597.687l-.02.022a46.463 46.463 0 0 1-3.009 3.012c-2.028 1.873-4.077 3.544-5.506 4.878l-.012.011c-.13.122-.255.24-.374.356l-.055.054a18.794 18.794 0 0 0-.336.338 14.733 14.733 0 0 0-.343.37 7.92 7.92 0 0 0-.245.288 6.09 6.09 0 0 0-.231-.314l-.057-.073a9.986 9.986 0 0 0-.595-.676l-.063-.066a17.15 17.15 0 0 0-.357-.362l-.028-.028a24.243 24.243 0 0 0-.422-.404c-1.549-1.452-3.696-3.169-5.756-5.07a42.188 42.188 0 0 1-2.329-2.303l-.071-.077a28.373 28.373 0 0 1-.573-.643l-.079-.088h.004c-.349-.407-.68-.819-.99-1.236h-.002a18.95 18.95 0 0 1-.817-1.203 14.397 14.397 0 0 1-.399-.689l-.119-.226a11.777 11.777 0 0 1-.308-.653 9.476 9.476 0 0 1-.197-.485l-.047-.132a9.042 9.042 0 0 1-.159-.491l-.037-.123a8.178 8.178 0 0 1-.13-.552l-.025-.127a7.277 7.277 0 0 1-.082-.566l-.008-.098c-.018-.2-.03-.401-.03-.602v-.003a7.018 7.018 0 0 1 7.018-7.016z" style="fill:rgb(195, 54, 54);animation-play-state:paused" ></path>
<metadata xmlns:d="https://loading.io/stock/" style="animation-play-state:paused" ><d:name style="animation-play-state:paused" >fly kiss</d:name>


<d:tags style="animation-play-state:paused" >fly kiss,heart,flirt,blow kiss,love,makeout,tease,seduct,adorable,like</d:tags>


<d:license style="animation-play-state:paused" >by</d:license>


<d:slug style="animation-play-state:paused" >gx31ya</d:slug></metadata></g><!-- generated by https://loading.io/ --></svg>