<?xml version="1.0" encoding="utf-8"?><svg xml:space="preserve" viewBox="0 0 100 100" y="0" x="0" xmlns="http://www.w3.org/2000/svg" id="圖層_1" version="1.1" width="100px" height="100px" xmlns:xlink="http://www.w3.org/1999/xlink" style="width:100%;height:100%;background-size:initial;background-repeat:initial;background-position-y:initial;background-position-x:initial;background-origin:initial;background-image:initial;background-color:rgb(255, 255, 255);background-clip:initial;background-attachment:initial;animation-play-state:paused" ><g class="ldl-scale" style="transform-origin:50% 50%;transform:rotate(0deg) scale(1, 1);animation-play-state:paused" ><g style="animation-play-state:paused" ><path fill="#ed1e79" d="M50 62.537c-15.863 0-28.768-12.905-28.768-28.768S34.137 5 50 5s28.768 12.905 28.768 28.768S65.863 62.537 50 62.537zm0-49.091c-11.206 0-20.323 9.117-20.323 20.323S38.794 54.091 50 54.091s20.323-9.117 20.323-20.323S61.206 13.446 50 13.446z" style="fill:rgb(237, 30, 121);animation-play-state:paused" ></path></g>
<g style="animation-play-state:paused" ><path fill="#ed1e79" d="M50 95a4.223 4.223 0 0 1-4.223-4.223V60.953a4.223 4.223 0 0 1 8.446 0v29.824A4.223 4.223 0 0 1 50 95z" style="fill:rgb(237, 30, 121);animation-play-state:paused" ></path></g>
<g style="animation-play-state:paused" ><path fill="#ed1e79" d="M65.836 79.032H34.164a4.223 4.223 0 0 1 0-8.446h31.672a4.223 4.223 0 1 1 0 8.446z" style="fill:rgb(237, 30, 121);animation-play-state:paused" ></path></g>
<metadata xmlns:d="https://loading.io/stock/" style="animation-play-state:paused" ><d:name style="animation-play-state:paused" >female</d:name>
<d:tags style="animation-play-state:paused" >gender,sex,lady,girl,female,people</d:tags>
<d:license style="animation-play-state:paused" >by</d:license>
<d:slug style="animation-play-state:paused" >33rn0k</d:slug></metadata></g><!-- generated by https://loading.io/ --></svg>