<?xml version="1.0" encoding="utf-8"?><svg xml:space="preserve" viewBox="0 0 100 100" y="0" x="0" xmlns="http://www.w3.org/2000/svg" id="圖層_1" version="1.1" width="100px" height="100px" xmlns:xlink="http://www.w3.org/1999/xlink" style="width:100%;height:100%;background-size:initial;background-repeat:initial;background-position-y:initial;background-position-x:initial;background-origin:initial;background-image:initial;background-color:rgb(255, 255, 255);background-clip:initial;background-attachment:initial;animation-play-state:paused" ><g class="ldl-scale" style="transform-origin:50% 50%;transform:rotate(0deg) scale(1, 1);animation-play-state:paused" ><ellipse stroke-linejoin="round" stroke-linecap="round" fill="#f5e6c8" stroke-miterlimit="10" stroke-width="3" stroke="#333" ry="11.8" rx="40" cy="66.6" cx="50" style="stroke:rgb(51, 51, 51);fill:rgb(245, 230, 200);animation-play-state:paused" ></ellipse>
<path stroke-linejoin="round" stroke-linecap="round" fill="#f5e6c8" stroke-miterlimit="10" stroke-width="3" stroke="#333" d="M77.9 58.1c-5 11-50.8 11-55.9 0-2-4.3-3.1-9.1-3.1-14.2 0-18.1 13.1-22.3 30.2-22.3S81 25.8 81 43.9c0 5.1-1.1 9.9-3.1 14.2z" style="stroke:rgb(51, 51, 51);fill:rgb(245, 230, 200);animation-play-state:paused" ></path>
<path stroke-miterlimit="10" stroke-width="3" stroke="#333" stroke-linejoin="round" stroke-linecap="round" fill="#e15b64" d="M50 55.9c-11.2 0-21.5-1.5-30.1-4.2.5 2.2 1.2 4.4 2.2 6.4 5 11 50.8 11 55.9 0 .9-2 1.6-4.2 2.2-6.4-8.7 2.6-19 4.2-30.2 4.2z" style="stroke:rgb(51, 51, 51);fill:rgb(225, 91, 100);animation-play-state:paused" ></path>
<metadata xmlns:d="https://loading.io/stock/" style="animation-play-state:paused" ><d:name style="animation-play-state:paused" >hats</d:name>


<d:tags style="animation-play-state:paused" >hats,round crown,cloche hats,dome hat,sun hat,bowler hat</d:tags>


<d:license style="animation-play-state:paused" >by</d:license>


<d:slug style="animation-play-state:paused" >9lx048</d:slug></metadata></g><!-- generated by https://loading.io/ --></svg>