<?xml version="1.0" encoding="utf-8"?><svg xml:space="preserve" viewBox="0 0 100 100" y="0" x="0" xmlns="http://www.w3.org/2000/svg" id="圖層_1" version="1.1" width="100px" height="100px" xmlns:xlink="http://www.w3.org/1999/xlink" style="width:100%;height:100%;background-size:initial;background-repeat:initial;background-position-y:initial;background-position-x:initial;background-origin:initial;background-image:initial;background-color:rgb(255, 255, 255);background-clip:initial;background-attachment:initial;animation-play-state:paused" ><g class="ldl-scale" style="transform-origin:50% 50%;transform:rotate(0deg) scale(1, 1);animation-play-state:paused" ><g style="animation-play-state:paused" ><path fill="#0071bc" d="M50 39.318c15.588 0 28.271 12.682 28.271 28.271S65.588 95.859 50 95.859s-28.271-12.682-28.271-28.27S34.412 39.318 50 39.318zm0 48.242c11.012 0 19.971-8.959 19.971-19.971S61.012 47.617 50 47.617s-19.971 8.959-19.971 19.971S38.988 87.56 50 87.56z" style="fill:rgb(0, 113, 188);animation-play-state:paused" ></path></g>
<g style="animation-play-state:paused" ><path d="M45.85 10.009h8.3v35.014h-8.3z" fill="#0071bc" style="fill:rgb(0, 113, 188);animation-play-state:paused" ></path></g>
<g style="animation-play-state:paused" ><path d="M50 4.141l24.227 24.226-5.868 5.87L50 15.878 31.642 34.237l-5.868-5.87z" fill="#0071bc" style="fill:rgb(0, 113, 188);animation-play-state:paused" ></path></g>
<metadata xmlns:d="https://loading.io/stock/" style="animation-play-state:paused" ><d:name style="animation-play-state:paused" >male</d:name>


<d:tags style="animation-play-state:paused" >gender,sex,gentleman,boy,male,people</d:tags>


<d:license style="animation-play-state:paused" >by</d:license>


<d:slug style="animation-play-state:paused" >m1bxmb</d:slug></metadata></g><!-- generated by https://loading.io/ --></svg>